<svg width="200" height="100" viewBox="0 0 200 100" fill="none" xmlns="http://www.w3.org/2000/svg">
<path d="M23.3 48.4943C21.84 48.4943 20.52 48.2443 19.34 47.7443C18.18 47.2443 17.26 46.5243 16.58 45.5843C15.9 44.6443 15.55 43.5343 15.53 42.2543H20.03C20.09 43.1143 20.39 43.7943 20.93 44.2943C21.49 44.7943 22.25 45.0443 23.21 45.0443C24.19 45.0443 24.96 44.8143 25.52 44.3543C26.08 43.8743 26.36 43.2543 26.36 42.4943C26.36 41.8743 26.17 41.3643 25.79 40.9643C25.41 40.5643 24.93 40.2543 24.35 40.0343C23.79 39.7943 23.01 39.5343 22.01 39.2543C20.65 38.8543 19.54 38.4643 18.68 38.0843C17.84 37.6843 17.11 37.0943 16.49 36.3143C15.89 35.5143 15.59 34.4543 15.59 33.1343C15.59 31.8943 15.9 30.8143 16.52 29.8943C17.14 28.9743 18.01 28.2743 19.13 27.7943C20.25 27.2943 21.53 27.0443 22.97 27.0443C25.13 27.0443 26.88 27.5743 28.22 28.6343C29.58 29.6743 30.33 31.1343 30.47 33.0143H25.85C25.81 32.2943 25.5 31.7043 24.92 31.2443C24.36 30.7643 23.61 30.5243 22.67 30.5243C21.85 30.5243 21.19 30.7343 20.69 31.1543C20.21 31.5743 19.97 32.1843 19.97 32.9843C19.97 33.5443 20.15 34.0143 20.51 34.3943C20.89 34.7543 21.35 35.0543 21.89 35.2943C22.45 35.5143 23.23 35.7743 24.23 36.0743C25.59 36.4743 26.7 36.8743 27.56 37.2743C28.42 37.6743 29.16 38.2743 29.78 39.0743C30.4 39.8743 30.71 40.9243 30.71 42.2243C30.71 43.3443 30.42 44.3843 29.84 45.3443C29.26 46.3043 28.41 47.0743 27.29 47.6543C26.17 48.2143 24.84 48.4943 23.3 48.4943ZM36.4813 29.6843C35.7413 29.6843 35.1213 29.4543 34.6213 28.9943C34.1413 28.5143 33.9013 27.9243 33.9013 27.2243C33.9013 26.5243 34.1413 25.9443 34.6213 25.4843C35.1213 25.0043 35.7413 24.7643 36.4813 24.7643C37.2213 24.7643 37.8313 25.0043 38.3113 25.4843C38.8113 25.9443 39.0613 26.5243 39.0613 27.2243C39.0613 27.9243 38.8113 28.5143 38.3113 28.9943C37.8313 29.4543 37.2213 29.6843 36.4813 29.6843ZM38.5513 31.6643V48.2843H34.3513V31.6643H38.5513ZM49.2109 31.3943C50.4509 31.3943 51.5409 31.6443 52.4809 32.1443C53.4209 32.6243 54.1609 33.2543 54.7009 34.0343V31.6643H58.9309V48.4043C58.9309 49.9443 58.6209 51.3143 58.0009 52.5143C57.3809 53.7343 56.4509 54.6943 55.2109 55.3943C53.9709 56.1143 52.4709 56.4743 50.7109 56.4743C48.3509 56.4743 46.4109 55.9243 44.8909 54.8243C43.3909 53.7243 42.5409 52.2243 42.3409 50.3243H46.5109C46.7309 51.0843 47.2009 51.6843 47.9209 52.1243C48.6609 52.5843 49.5509 52.8143 50.5909 52.8143C51.8109 52.8143 52.8009 52.4443 53.5609 51.7043C54.3209 50.9843 54.7009 49.8843 54.7009 48.4043V45.8243C54.1609 46.6043 53.4109 47.2543 52.4509 47.7743C51.5109 48.2943 50.4309 48.5543 49.2109 48.5543C47.8109 48.5543 46.5309 48.1943 45.3709 47.4743C44.2109 46.7543 43.2909 45.7443 42.6109 44.4443C41.9509 43.1243 41.6209 41.6143 41.6209 39.9143C41.6209 38.2343 41.9509 36.7443 42.6109 35.4443C43.2909 34.1443 44.2009 33.1443 45.3409 32.4443C46.5009 31.7443 47.7909 31.3943 49.2109 31.3943ZM54.7009 39.9743C54.7009 38.9543 54.5009 38.0843 54.1009 37.3643C53.7009 36.6243 53.1609 36.0643 52.4809 35.6843C51.8009 35.2843 51.0709 35.0843 50.2909 35.0843C49.5109 35.0843 48.7909 35.2743 48.1309 35.6543C47.4709 36.0343 46.9309 36.5943 46.5109 37.3343C46.1109 38.0543 45.9109 38.9143 45.9109 39.9143C45.9109 40.9143 46.1109 41.7943 46.5109 42.5543C46.9309 43.2943 47.4709 43.8643 48.1309 44.2643C48.8109 44.6643 49.5309 44.8643 50.2909 44.8643C51.0709 44.8643 51.8009 44.6743 52.4809 44.2943C53.1609 43.8943 53.7009 43.3343 54.1009 42.6143C54.5009 41.8743 54.7009 40.9943 54.7009 39.9743ZM72.2429 31.4243C74.2229 31.4243 75.8229 32.0543 77.0429 33.3143C78.2629 34.5543 78.8729 36.2943 78.8729 38.5343V48.2843H74.6729V39.1043C74.6729 37.7843 74.3429 36.7743 73.6829 36.0743C73.0229 35.3543 72.1229 34.9943 70.9829 34.9943C69.8229 34.9943 68.9029 35.3543 68.2229 36.0743C67.5629 36.7743 67.2329 37.7843 67.2329 39.1043V48.2843H63.0329V31.6643H67.2329V33.7343C67.7929 33.0143 68.5029 32.4543 69.3629 32.0543C70.2429 31.6343 71.2029 31.4243 72.2429 31.4243Z" fill="#49BBBD"/>
<path d="M109.27 72.9543H116.17V76.2843H105.07V55.3443H109.27V72.9543ZM120.97 57.6843C120.23 57.6843 119.61 57.4543 119.11 56.9943C118.63 56.5143 118.39 55.9243 118.39 55.2243C118.39 54.5243 118.63 53.9443 119.11 53.4843C119.61 53.0043 120.23 52.7643 120.97 52.7643C121.71 52.7643 122.32 53.0043 122.8 53.4843C123.3 53.9443 123.55 54.5243 123.55 55.2243C123.55 55.9243 123.3 56.5143 122.8 56.9943C122.32 57.4543 121.71 57.6843 120.97 57.6843ZM123.04 59.6643V76.2843H118.84V59.6643H123.04ZM136.399 59.4243C138.379 59.4243 139.979 60.0543 141.199 61.3143C142.419 62.5543 143.029 64.2943 143.029 66.5343V76.2843H138.829V67.1043C138.829 65.7843 138.499 64.7743 137.839 64.0743C137.179 63.3543 136.279 62.9943 135.139 62.9943C133.979 62.9943 133.059 63.3543 132.379 64.0743C131.719 64.7743 131.389 65.7843 131.389 67.1043V76.2843H127.189V59.6643H131.389V61.7343C131.949 61.0143 132.659 60.4543 133.519 60.0543C134.399 59.6343 135.359 59.4243 136.399 59.4243ZM153.533 59.3943C154.773 59.3943 155.863 59.6443 156.803 60.1443C157.743 60.6243 158.483 61.2543 159.023 62.0343V59.6643H163.253V76.4043C163.253 77.9443 162.943 79.3143 162.323 80.5143C161.703 81.7343 160.773 82.6943 159.533 83.3943C158.293 84.1143 156.793 84.4743 155.033 84.4743C152.673 84.4743 150.733 83.9243 149.213 82.8243C147.713 81.7243 146.863 80.2243 146.663 78.3243H150.833C151.053 79.0843 151.523 79.6843 152.243 80.1243C152.983 80.5843 153.873 80.8143 154.913 80.8143C156.133 80.8143 157.123 80.4443 157.883 79.7043C158.643 78.9843 159.023 77.8843 159.023 76.4043V73.8243C158.483 74.6043 157.733 75.2543 156.773 75.7743C155.833 76.2943 154.753 76.5543 153.533 76.5543C152.133 76.5543 150.853 76.1943 149.693 75.4743C148.533 74.7543 147.613 73.7443 146.933 72.4443C146.273 71.1243 145.943 69.6143 145.943 67.9143C145.943 66.2343 146.273 64.7443 146.933 63.4443C147.613 62.1443 148.523 61.1443 149.663 60.4443C150.823 59.7443 152.113 59.3943 153.533 59.3943ZM159.023 67.9743C159.023 66.9543 158.823 66.0843 158.423 65.3643C158.023 64.6243 157.483 64.0643 156.803 63.6843C156.123 63.2843 155.393 63.0843 154.613 63.0843C153.833 63.0843 153.113 63.2743 152.453 63.6543C151.793 64.0343 151.253 64.5943 150.833 65.3343C150.433 66.0543 150.233 66.9143 150.233 67.9143C150.233 68.9143 150.433 69.7943 150.833 70.5543C151.253 71.2943 151.793 71.8643 152.453 72.2643C153.133 72.6643 153.853 72.8643 154.613 72.8643C155.393 72.8643 156.123 72.6743 156.803 72.2943C157.483 71.8943 158.023 71.3343 158.423 70.6143C158.823 69.8743 159.023 68.9943 159.023 67.9743ZM174.735 76.5543C173.135 76.5543 171.695 76.2043 170.415 75.5043C169.135 74.7843 168.125 73.7743 167.385 72.4743C166.665 71.1743 166.305 69.6743 166.305 67.9743C166.305 66.2743 166.675 64.7743 167.415 63.4743C168.175 62.1743 169.205 61.1743 170.505 60.4743C171.805 59.7543 173.255 59.3943 174.855 59.3943C176.455 59.3943 177.905 59.7543 179.205 60.4743C180.505 61.1743 181.525 62.1743 182.265 63.4743C183.025 64.7743 183.405 66.2743 183.405 67.9743C183.405 69.6743 183.015 71.1743 182.235 72.4743C181.475 73.7743 180.435 74.7843 179.115 75.5043C177.815 76.2043 176.355 76.5543 174.735 76.5543ZM174.735 72.8943C175.495 72.8943 176.205 72.7143 176.865 72.3543C177.545 71.9743 178.085 71.4143 178.485 70.6743C178.885 69.9343 179.085 69.0343 179.085 67.9743C179.085 66.3943 178.665 65.1843 177.825 64.3443C177.005 63.4843 175.995 63.0543 174.795 63.0543C173.595 63.0543 172.585 63.4843 171.765 64.3443C170.965 65.1843 170.565 66.3943 170.565 67.9743C170.565 69.5543 170.955 70.7743 171.735 71.6343C172.535 72.4743 173.535 72.8943 174.735 72.8943Z" fill="black"/>
<path d="M80.2157 9L108.5 37.2843" stroke="#49BBBD"/>
<line x1="80.6464" y1="65.215" x2="108.931" y2="36.9307" stroke="#49BBBD"/>
<path d="M103.284 93.5685L75 65.2843" stroke="black"/>
<path d="M103 37.6375L74.716 65.9221" stroke="black"/>
</svg>
